<mxfile>
    <diagram id="jU3RMTgduUh9xC1G8RBb" name="Page-1">
        <mxGraphModel dx="734" dy="575" grid="0" gridSize="10" guides="1" tooltips="1" connect="1" arrows="1" fold="1" page="1" pageScale="1" pageWidth="827" pageHeight="1169" math="0" shadow="0">
            <root>
                <mxCell id="0"/>
                <mxCell id="1" parent="0"/>
                <mxCell id="2" value="&lt;p style=&quot;margin: 0px ; margin-top: 4px ; text-align: center&quot;&gt;&amp;lt;&amp;lt;Interface&amp;gt;&amp;gt;&lt;br&gt;&lt;/p&gt;&lt;p style=&quot;margin: 0px ; margin-top: 4px ; text-align: center&quot;&gt;&lt;b&gt;Game&lt;/b&gt;&lt;/p&gt;&lt;hr size=&quot;1&quot;&gt;&lt;p style=&quot;margin: 0px ; margin-left: 4px&quot;&gt;+ createGameField();&lt;/p&gt;&lt;p style=&quot;margin: 0px ; margin-left: 4px&quot;&gt;+ createGameBall();&lt;/p&gt;" style="verticalAlign=top;align=left;overflow=fill;fontSize=12;fontFamily=Helvetica;html=1;" parent="1" vertex="1">
                    <mxGeometry x="319" y="190" width="190" height="100" as="geometry"/>
                </mxCell>
                <mxCell id="3" value="Football" style="swimlane;fontStyle=1;childLayout=stackLayout;horizontal=1;startSize=26;fillColor=none;horizontalStack=0;resizeParent=1;resizeParentMax=0;resizeLast=0;collapsible=1;marginBottom=0;" parent="1" vertex="1">
                    <mxGeometry x="319" y="70" width="140" height="80" as="geometry"/>
                </mxCell>
                <mxCell id="4" value="Extends" style="endArrow=block;endSize=16;endFill=0;html=1;dashed=1;textOpacity=0;exitX=0.5;exitY=0;exitDx=0;exitDy=0;" parent="3" target="2" edge="1">
                    <mxGeometry width="160" relative="1" as="geometry">
                        <mxPoint x="71" y="80" as="sourcePoint"/>
                        <mxPoint x="282" y="-60" as="targetPoint"/>
                        <Array as="points"/>
                    </mxGeometry>
                </mxCell>
                <mxCell id="5" value="+ createGameField();&#10;+ createGameBall();" style="text;strokeColor=none;fillColor=none;align=left;verticalAlign=top;spacingLeft=4;spacingRight=4;overflow=hidden;rotatable=0;points=[[0,0.5],[1,0.5]];portConstraint=eastwest;" parent="3" vertex="1">
                    <mxGeometry y="26" width="140" height="54" as="geometry"/>
                </mxCell>
                <mxCell id="6" value="Volleyball" style="swimlane;fontStyle=1;childLayout=stackLayout;horizontal=1;startSize=26;fillColor=none;horizontalStack=0;resizeParent=1;resizeParentMax=0;resizeLast=0;collapsible=1;marginBottom=0;" parent="1" vertex="1">
                    <mxGeometry x="319" y="340" width="140" height="80" as="geometry"/>
                </mxCell>
                <mxCell id="7" value="+ createGameField();&#10;+ createGameBall();" style="text;strokeColor=none;fillColor=none;align=left;verticalAlign=top;spacingLeft=4;spacingRight=4;overflow=hidden;rotatable=0;points=[[0,0.5],[1,0.5]];portConstraint=eastwest;" parent="6" vertex="1">
                    <mxGeometry y="26" width="140" height="54" as="geometry"/>
                </mxCell>
                <mxCell id="8" value="FootballBall" style="html=1;fontStyle=1" parent="1" vertex="1">
                    <mxGeometry x="200" y="150" width="80" height="40" as="geometry"/>
                </mxCell>
                <mxCell id="9" value="VolleyballField" style="html=1;fontStyle=1" parent="1" vertex="1">
                    <mxGeometry x="95" y="300" width="95" height="40" as="geometry"/>
                </mxCell>
                <mxCell id="10" value="VolleyballBall" style="html=1;fontStyle=1" parent="1" vertex="1">
                    <mxGeometry x="200" y="300" width="90" height="40" as="geometry"/>
                </mxCell>
                <mxCell id="11" value="FootballField" style="html=1;fontStyle=1" parent="1" vertex="1">
                    <mxGeometry x="90" y="150" width="100" height="40" as="geometry"/>
                </mxCell>
                <mxCell id="12" value="Extends" style="endArrow=block;endSize=16;endFill=0;html=1;dashed=1;textOpacity=0;exitX=0.5;exitY=0;exitDx=0;exitDy=0;" parent="1" source="6" edge="1">
                    <mxGeometry x="-0.1523" y="-2" width="160" relative="1" as="geometry">
                        <mxPoint x="290" y="300" as="sourcePoint"/>
                        <mxPoint x="400" y="293" as="targetPoint"/>
                        <Array as="points"/>
                        <mxPoint as="offset"/>
                    </mxGeometry>
                </mxCell>
                <mxCell id="13" value="Use" style="endArrow=open;endSize=12;dashed=1;html=1;entryX=0.5;entryY=1;entryDx=0;entryDy=0;exitX=-0.013;exitY=0.648;exitDx=0;exitDy=0;exitPerimeter=0;textOpacity=0;" parent="1" source="7" target="10" edge="1">
                    <mxGeometry width="160" relative="1" as="geometry">
                        <mxPoint x="180" y="410" as="sourcePoint"/>
                        <mxPoint x="240" y="470" as="targetPoint"/>
                        <Array as="points">
                            <mxPoint x="245" y="400"/>
                        </Array>
                    </mxGeometry>
                </mxCell>
                <mxCell id="14" value="Use" style="endArrow=open;endSize=12;dashed=1;html=1;entryX=0.5;entryY=1;entryDx=0;entryDy=0;textOpacity=0;" parent="1" target="9" edge="1">
                    <mxGeometry width="160" relative="1" as="geometry">
                        <mxPoint x="250" y="400" as="sourcePoint"/>
                        <mxPoint x="450" y="300" as="targetPoint"/>
                        <Array as="points">
                            <mxPoint x="143" y="400"/>
                        </Array>
                    </mxGeometry>
                </mxCell>
                <mxCell id="15" value="Use" style="endArrow=open;endSize=12;dashed=1;html=1;entryX=0.5;entryY=0;entryDx=0;entryDy=0;exitX=0;exitY=0.001;exitDx=0;exitDy=0;exitPerimeter=0;textOpacity=0;" parent="1" source="5" target="8" edge="1">
                    <mxGeometry width="160" relative="1" as="geometry">
                        <mxPoint x="130" y="70" as="sourcePoint"/>
                        <mxPoint x="290" y="70" as="targetPoint"/>
                        <Array as="points">
                            <mxPoint x="240" y="96"/>
                        </Array>
                    </mxGeometry>
                </mxCell>
                <mxCell id="16" value="Use" style="endArrow=open;endSize=12;dashed=1;html=1;entryX=0.5;entryY=0;entryDx=0;entryDy=0;exitX=0;exitY=0.001;exitDx=0;exitDy=0;exitPerimeter=0;textOpacity=0;" parent="1" edge="1">
                    <mxGeometry width="160" relative="1" as="geometry">
                        <mxPoint x="239" y="96.05399999999997" as="sourcePoint"/>
                        <mxPoint x="160" y="150" as="targetPoint"/>
                        <Array as="points">
                            <mxPoint x="160" y="96"/>
                        </Array>
                    </mxGeometry>
                </mxCell>
                <mxCell id="17" value="Ball" style="html=1;fontStyle=1" parent="1" vertex="1">
                    <mxGeometry x="200" y="223.75" width="95" height="32.5" as="geometry"/>
                </mxCell>
                <mxCell id="18" value="Field" style="html=1;fontStyle=1" parent="1" vertex="1">
                    <mxGeometry x="90" y="223.75" width="95" height="32.5" as="geometry"/>
                </mxCell>
                <mxCell id="19" value="Extends" style="endArrow=block;endSize=16;endFill=0;html=1;textOpacity=0;fontStyle=1" parent="1" source="9" edge="1">
                    <mxGeometry width="160" relative="1" as="geometry">
                        <mxPoint x="141.91" y="296.25" as="sourcePoint"/>
                        <mxPoint x="141.90999999999985" y="256.25" as="targetPoint"/>
                    </mxGeometry>
                </mxCell>
                <mxCell id="20" value="Extends" style="endArrow=block;endSize=16;endFill=0;html=1;textOpacity=0;fontStyle=1" parent="1" edge="1">
                    <mxGeometry width="160" relative="1" as="geometry">
                        <mxPoint x="245.20490196078435" y="300" as="sourcePoint"/>
                        <mxPoint x="244.79999999999995" y="256.25" as="targetPoint"/>
                    </mxGeometry>
                </mxCell>
                <mxCell id="21" value="Extends" style="endArrow=block;endSize=16;endFill=0;html=1;textOpacity=0;entryX=0.576;entryY=-0.034;entryDx=0;entryDy=0;entryPerimeter=0;fontStyle=1" parent="1" target="18" edge="1">
                    <mxGeometry x="1" y="-36" width="160" relative="1" as="geometry">
                        <mxPoint x="145" y="191" as="sourcePoint"/>
                        <mxPoint x="142.29999999999995" y="190" as="targetPoint"/>
                        <mxPoint x="-36" y="-36" as="offset"/>
                    </mxGeometry>
                </mxCell>
                <mxCell id="22" value="Extends" style="endArrow=block;endSize=16;endFill=0;html=1;textOpacity=0;fontStyle=1" parent="1" edge="1">
                    <mxGeometry x="1" y="-36" width="160" relative="1" as="geometry">
                        <mxPoint x="245.07999999999993" y="190" as="sourcePoint"/>
                        <mxPoint x="245" y="222" as="targetPoint"/>
                        <mxPoint x="-36" y="-36" as="offset"/>
                    </mxGeometry>
                </mxCell>
                <mxCell id="23" value="Client" style="swimlane;fontStyle=1;childLayout=stackLayout;horizontal=1;startSize=26;fillColor=none;horizontalStack=0;resizeParent=1;resizeParentMax=0;resizeLast=0;collapsible=1;marginBottom=0;" parent="1" vertex="1">
                    <mxGeometry x="570" y="214" width="140" height="52" as="geometry"/>
                </mxCell>
                <mxCell id="24" value="- factory : Game" style="text;strokeColor=none;fillColor=none;align=left;verticalAlign=top;spacingLeft=4;spacingRight=4;overflow=hidden;rotatable=0;points=[[0,0.5],[1,0.5]];portConstraint=eastwest;" parent="23" vertex="1">
                    <mxGeometry y="26" width="140" height="26" as="geometry"/>
                </mxCell>
                <mxCell id="25" value="return" style="html=1;verticalAlign=bottom;endArrow=open;endSize=8;exitX=0;exitY=0.5;exitDx=0;exitDy=0;textOpacity=0;" parent="1" source="23" edge="1">
                    <mxGeometry relative="1" as="geometry">
                        <mxPoint x="640" y="120" as="sourcePoint"/>
                        <mxPoint x="510" y="240" as="targetPoint"/>
                    </mxGeometry>
                </mxCell>
            </root>
        </mxGraphModel>
    </diagram>
</mxfile>